<svg width="193" height="50" viewBox="0 0 193 50" fill="none" xmlns="http://www.w3.org/2000/svg">
<path d="M63.3332 26.63C63.3332 24.95 63.6276 23.46 64.2164 22.16C64.8231 20.86 65.6439 19.86 66.6788 19.16C67.7136 18.46 68.8645 18.11 70.1314 18.11C71.0949 18.11 72.0138 18.35 72.8881 18.83C73.7624 19.29 74.4582 19.91 74.9757 20.69V12.8H78.7762V35H74.9757V32.54C74.5118 33.36 73.8605 34.02 73.0219 34.52C72.1833 35.02 71.2108 35.27 70.1046 35.27C68.8556 35.27 67.7136 34.91 66.6788 34.19C65.6439 33.47 64.8231 32.46 64.2164 31.16C63.6276 29.84 63.3332 28.33 63.3332 26.63ZM75.0025 26.69C75.0025 25.67 74.824 24.8 74.4672 24.08C74.1103 23.34 73.6286 22.78 73.0219 22.4C72.4152 22 71.764 21.8 71.0681 21.8C70.3722 21.8 69.7299 21.99 69.1411 22.37C68.5523 22.75 68.0705 23.31 67.6958 24.05C67.3389 24.77 67.1605 25.63 67.1605 26.63C67.1605 27.63 67.3389 28.51 67.6958 29.27C68.0705 30.01 68.5523 30.58 69.1411 30.98C69.7477 31.38 70.3901 31.58 71.0681 31.58C71.764 31.58 72.4152 31.39 73.0219 31.01C73.6286 30.61 74.1103 30.05 74.4672 29.33C74.824 28.59 75.0025 27.71 75.0025 26.69Z" fill="white"/>
<path d="M86.7984 21.83V29.87C86.7984 30.43 86.9144 30.84 87.1463 31.1C87.3961 31.34 87.8065 31.46 88.3775 31.46H90.1172V35H87.7619C84.6037 35 83.0246 33.28 83.0246 29.84V21.83H81.2582V18.38H83.0246V14.27H86.7984V18.38H90.1172V21.83H86.7984Z" fill="white"/>
<path d="M117.603 18.14C119.423 18.14 120.887 18.77 121.993 20.03C123.117 21.27 123.679 23.01 123.679 25.25V35H119.932V25.82C119.932 24.52 119.638 23.53 119.049 22.85C118.46 22.15 117.657 21.8 116.64 21.8C115.623 21.8 114.811 22.15 114.204 22.85C113.616 23.53 113.321 24.52 113.321 25.82V35H109.574V25.82C109.574 24.52 109.28 23.53 108.691 22.85C108.102 22.15 107.299 21.8 106.282 21.8C105.247 21.8 104.427 22.15 103.82 22.85C103.231 23.53 102.937 24.52 102.937 25.82V35H99.1896V18.38H102.937V20.39C103.418 19.69 104.034 19.14 104.783 18.74C105.551 18.34 106.389 18.14 107.299 18.14C108.459 18.14 109.494 18.42 110.404 18.98C111.314 19.52 112.019 20.3 112.518 21.32C113 20.36 113.696 19.59 114.606 19.01C115.534 18.43 116.533 18.14 117.603 18.14Z" fill="white"/>
<path d="M133.819 35.27C132.391 35.27 131.107 34.92 129.965 34.22C128.823 33.5 127.922 32.49 127.261 31.19C126.619 29.89 126.298 28.39 126.298 26.69C126.298 24.99 126.628 23.49 127.288 22.19C127.966 20.89 128.885 19.89 130.045 19.19C131.205 18.47 132.498 18.11 133.926 18.11C135.353 18.11 136.647 18.47 137.807 19.19C138.966 19.89 139.876 20.89 140.536 22.19C141.215 23.49 141.554 24.99 141.554 26.69C141.554 28.39 141.206 29.89 140.51 31.19C139.832 32.49 138.904 33.5 137.726 34.22C136.566 34.92 135.264 35.27 133.819 35.27ZM133.819 31.61C134.497 31.61 135.13 31.43 135.719 31.07C136.326 30.69 136.807 30.13 137.164 29.39C137.521 28.65 137.699 27.75 137.699 26.69C137.699 25.11 137.325 23.9 136.575 23.06C135.844 22.2 134.943 21.77 133.872 21.77C132.802 21.77 131.901 22.2 131.169 23.06C130.455 23.9 130.098 25.11 130.098 26.69C130.098 28.27 130.446 29.49 131.142 30.35C131.856 31.19 132.748 31.61 133.819 31.61Z" fill="white"/>
<path d="M152.519 18.14C154.285 18.14 155.713 18.77 156.801 20.03C157.889 21.27 158.434 23.01 158.434 25.25V35H154.687V25.82C154.687 24.5 154.392 23.49 153.803 22.79C153.215 22.07 152.412 21.71 151.395 21.71C150.36 21.71 149.539 22.07 148.932 22.79C148.343 23.49 148.049 24.5 148.049 25.82V35H144.302V18.38H148.049V20.45C148.549 19.73 149.182 19.17 149.949 18.77C150.734 18.35 151.591 18.14 152.519 18.14Z" fill="white"/>
<path d="M175.78 26.33C175.78 26.93 175.745 27.47 175.673 27.95H164.834C164.923 29.15 165.298 30.09 165.958 30.77C166.618 31.45 167.43 31.79 168.393 31.79C169.785 31.79 170.776 31.12 171.364 29.78H175.406C174.978 31.38 174.157 32.7 172.943 33.74C171.73 34.76 170.24 35.27 168.474 35.27C167.046 35.27 165.762 34.92 164.62 34.22C163.496 33.5 162.612 32.49 161.97 31.19C161.346 29.89 161.033 28.39 161.033 26.69C161.033 24.97 161.346 23.46 161.97 22.16C162.595 20.86 163.469 19.86 164.593 19.16C165.717 18.46 167.011 18.11 168.474 18.11C169.883 18.11 171.141 18.45 172.248 19.13C173.372 19.81 174.237 20.78 174.844 22.04C175.468 23.28 175.78 24.71 175.78 26.33ZM171.9 25.13C171.882 24.05 171.534 23.19 170.856 22.55C170.178 21.89 169.348 21.56 168.367 21.56C167.439 21.56 166.654 21.88 166.011 22.52C165.387 23.14 165.003 24.01 164.861 25.13H171.9Z" fill="white"/>
<path d="M192.7 18.38L183.52 42.86H179.532L182.744 34.58L176.803 18.38H181.004L184.832 29.99L188.713 18.38H192.7Z" fill="white"/>
<path d="M38.0746 7.32227C33.862 2.60039 28.2611 1.90735e-06 22.3036 1.90735e-06C16.3461 1.90735e-06 10.7451 2.60039 6.53251 7.32227C2.31992 12.0441 0 18.3223 0 25C0 31.6777 2.32001 37.9558 6.53251 42.6777C10.745 47.3997 16.3461 50 22.3036 50C28.2611 50 33.862 47.3996 38.0746 42.6777C42.2872 37.9559 44.6071 31.6777 44.6071 25C44.6071 18.3223 42.2871 12.0442 38.0746 7.32227Z" fill="#33CC95"/>
<g clip-path="url(#clip0_35212:417)">
<path d="M22.9408 10V41.4286" stroke="white" stroke-width="2" stroke-linecap="round" stroke-linejoin="round"/>
<path d="M29.3133 15.7143H19.7546C18.5715 15.7143 17.4369 16.2411 16.6004 17.1787C15.7639 18.1164 15.2939 19.3882 15.2939 20.7143C15.2939 22.0404 15.7639 23.3121 16.6004 24.2498C17.4369 25.1875 18.5715 25.7143 19.7546 25.7143H26.127C27.3101 25.7143 28.4447 26.2411 29.2812 27.1788C30.1178 28.1164 30.5878 29.3882 30.5878 30.7143C30.5878 32.0404 30.1178 33.3121 29.2812 34.2498C28.4447 35.1875 27.3101 35.7143 26.127 35.7143H15.2939" stroke="white" stroke-width="2" stroke-linecap="round" stroke-linejoin="round"/>
</g>
<defs>
<clipPath id="clip0_35212:417">
<rect width="30.5878" height="34.2857" fill="white" transform="translate(7.64694 8.57143)"/>
</clipPath>
</defs>
</svg>
