<svg width="39" height="13" viewBox="0 0 39 13" fill="none" xmlns="http://www.w3.org/2000/svg">
<path d="M8.096 1.03318V2.21718H5.056V12.1852H3.6V2.21718H0.544V1.03318H8.096ZM13.7123 12.3292C12.8909 12.3292 12.1443 12.1425 11.4723 11.7692C10.8109 11.3958 10.2883 10.8678 9.90425 10.1852C9.53092 9.49185 9.34425 8.69185 9.34425 7.78518C9.34425 6.88918 9.53625 6.09985 9.92025 5.41718C10.3149 4.72385 10.8483 4.19585 11.5203 3.83318C12.1923 3.45985 12.9443 3.27318 13.7763 3.27318C14.6083 3.27318 15.3603 3.45985 16.0323 3.83318C16.7043 4.19585 17.2323 4.71851 17.6163 5.40118C18.0109 6.08385 18.2083 6.87851 18.2083 7.78518C18.2083 8.69185 18.0056 9.49185 17.6003 10.1852C17.2056 10.8678 16.6669 11.3958 15.9843 11.7692C15.3016 12.1425 14.5443 12.3292 13.7123 12.3292ZM13.7123 11.0492C14.2349 11.0492 14.7256 10.9265 15.1843 10.6812C15.6429 10.4358 16.0109 10.0678 16.2883 9.57718C16.5763 9.08651 16.7203 8.48918 16.7203 7.78518C16.7203 7.08118 16.5816 6.48385 16.3043 5.99318C16.0269 5.50251 15.6643 5.13985 15.2163 4.90518C14.7683 4.65985 14.2829 4.53718 13.7603 4.53718C13.2269 4.53718 12.7363 4.65985 12.2883 4.90518C11.8509 5.13985 11.4989 5.50251 11.2323 5.99318C10.9656 6.48385 10.8323 7.08118 10.8323 7.78518C10.8323 8.49985 10.9603 9.10251 11.2163 9.59318C11.4829 10.0838 11.8349 10.4518 12.2723 10.6972C12.7096 10.9318 13.1896 11.0492 13.7123 11.0492ZM21.8986 4.61718V9.78518C21.8986 10.2118 21.9893 10.5158 22.1706 10.6972C22.352 10.8678 22.6666 10.9532 23.1146 10.9532H24.1866V12.1852H22.8746C22.064 12.1852 21.456 11.9985 21.0506 11.6252C20.6453 11.2518 20.4426 10.6385 20.4426 9.78518V4.61718H19.3066V3.41718H20.4426V1.20918H21.8986V3.41718H24.1866V4.61718H21.8986ZM25.4068 7.76918C25.4068 6.87318 25.5881 6.08918 25.9508 5.41718C26.3134 4.73451 26.8094 4.20651 27.4388 3.83318C28.0788 3.45985 28.7881 3.27318 29.5668 3.27318C30.3348 3.27318 31.0014 3.43851 31.5668 3.76918C32.1321 4.09985 32.5534 4.51585 32.8308 5.01718V3.41718H34.3028V12.1852H32.8308V10.5532C32.5428 11.0652 32.1108 11.4918 31.5348 11.8332C30.9694 12.1638 30.3081 12.3292 29.5508 12.3292C28.7721 12.3292 28.0681 12.1372 27.4388 11.7532C26.8094 11.3692 26.3134 10.8305 25.9508 10.1372C25.5881 9.44385 25.4068 8.65451 25.4068 7.76918ZM32.8308 7.78518C32.8308 7.12385 32.6974 6.54785 32.4308 6.05718C32.1641 5.56651 31.8014 5.19318 31.3428 4.93718C30.8948 4.67051 30.3988 4.53718 29.8548 4.53718C29.3108 4.53718 28.8148 4.66518 28.3668 4.92118C27.9188 5.17718 27.5614 5.55051 27.2948 6.04118C27.0281 6.53185 26.8948 7.10785 26.8948 7.76918C26.8948 8.44118 27.0281 9.02785 27.2948 9.52918C27.5614 10.0198 27.9188 10.3985 28.3668 10.6652C28.8148 10.9212 29.3108 11.0492 29.8548 11.0492C30.3988 11.0492 30.8948 10.9212 31.3428 10.6652C31.8014 10.3985 32.1641 10.0198 32.4308 9.52918C32.6974 9.02785 32.8308 8.44651 32.8308 7.78518ZM38.2193 0.345181V12.1852H36.7633V0.345181H38.2193Z" fill="white"/>
</svg>
